<?xml version="1.0" encoding="utf-8"?>
<!-- Generator: Adobe Illustrator 17.0.0, SVG Export Plug-In . SVG Version: 6.00 Build 0)  -->
<!DOCTYPE svg PUBLIC "-//W3C//DTD SVG 1.1//EN" "http://www.w3.org/Graphics/SVG/1.1/DTD/svg11.dtd">
<svg version="1.1" id="Слой_1" xmlns="http://www.w3.org/2000/svg" xmlns:xlink="http://www.w3.org/1999/xlink" x="0px" y="0px"
	 width="96px" height="96px" viewBox="0 0 96 96" enable-background="new 0 0 96 96" xml:space="preserve">
<g>
	<path fill="#5F5E5E" d="M53.431,54.419l0.078,0.034l0.043,0.02l0.92-36.162c-0.652-0.413-3.697-2.264-5.774-2.317L50.82,54.92
		L53.431,54.419z"/>
	<polygon fill="#5F5E5E" points="47.823,55.018 45.48,68.811 47.395,69.562 49.885,55.396 	"/>
	<polygon fill="#726C91" points="45.44,56.367 44.867,68.882 44.93,68.833 47.236,55.249 	"/>
	<path fill="#6DB52D" d="M25.439,62.492l15.78-6.444c-0.667-2.629-6.897-26.918-11.558-35.962
		c-1.157,0.147-7.802,1.153-15.804,5.799c0.233,0.501,0.832,1.813,1.644,3.749C18.147,35.935,22.936,48.544,25.439,62.492z
		 M30.96,56.39l-2.596,0.826l-2.252-6.712l2.657-1.187L30.96,56.39z M27.847,46.135l-2.049,1.311l-3.343-6.829l2.925-1.773
		L27.847,46.135z M21.592,27.795l2.631,7.223l-2.779,1.319l-2.466-6.701L21.592,27.795z"/>
	<path fill="#9E98B4" d="M61.039,16.698c-4.806,0.376-5.877,1.38-6.026,1.559l-0.928,36.46l2.06,0.945L61.039,16.698z"/>
	<path fill="#5F5E5E" d="M59.095,54.742l7.614-34.844c-1.995-1.659-4.304-2.746-5.138-3.111L56.685,55.65L59.095,54.742z"/>
	<path fill="#9E98B4" d="M48.164,16.132c-0.87,0.422-3.211,1.683-4.993,3.753l4.672,34.584l2.436,0.447L48.164,16.132z"/>
	<path fill="#F4B637" d="M65.18,56.403c3.097,2.523,10.244,5.578,11.558,6.127c7.17-11.589,15.918-29.89,16.891-31.931
		c-5.237-4.571-13.739-7.208-15.167-7.629c-5.245,9.918-12.356,30.658-13.249,33.291l0.026,0.004L65.18,56.403z M76.936,55.218
		c-1.002,0-1.819-0.824-1.819-1.834s0.817-1.834,1.819-1.834c1.002,0,1.819,0.824,1.819,1.834S77.938,55.218,76.936,55.218z
		 M80.642,47.094c-1.002,0-1.819-0.823-1.819-1.834s0.817-1.834,1.819-1.834c1.002,0,1.819,0.823,1.819,1.834
		S81.644,47.094,80.642,47.094z M86.748,30.53c1.002,0,1.819,0.823,1.819,1.834c0,1.012-0.817,1.834-1.819,1.834
		c-1.002,0-1.819-0.823-1.819-1.834C84.929,31.352,85.746,30.53,86.748,30.53z M85.561,38.775c0,1.012-0.817,1.834-1.819,1.834
		c-1.002,0-1.819-0.823-1.819-1.834c0-1.012,0.817-1.834,1.819-1.834C84.744,36.941,85.561,37.764,85.561,38.775z M80.956,27.948
		c1.002,0,1.819,0.823,1.819,1.834c0,1.012-0.817,1.834-1.819,1.834s-1.819-0.823-1.819-1.834
		C79.136,28.771,79.953,27.948,80.956,27.948z M78.216,34.359c1.002,0,1.819,0.823,1.819,1.834s-0.817,1.834-1.819,1.834
		c-1.002,0-1.819-0.823-1.819-1.834S77.214,34.359,78.216,34.359z M75.117,40.843c1.002,0,1.819,0.823,1.819,1.834
		c0,1.012-0.817,1.834-1.819,1.834c-1.002,0-1.819-0.823-1.819-1.834C73.298,41.666,74.114,40.843,75.117,40.843z M71.413,48.967
		c1.002,0,1.819,0.824,1.819,1.834c0,1.011-0.817,1.834-1.819,1.834c-1.002,0-1.819-0.824-1.819-1.834
		C69.594,49.791,70.411,48.967,71.413,48.967z"/>
	<path fill="#13632D" d="M76.985,63.155l-0.033,0.053L76.935,63.2l-9.218,12.351C78.4,72.567,86.09,67.096,90.534,59.243
		c1.989-3.514,3.125-7.185,3.747-10.687C86.051,63.092,78.258,63.244,76.985,63.155z"/>
	<path fill="#5F5E5E" d="M47.312,54.564L42.64,19.986c-1.992-0.819-4.519-1.317-5.468-1.486l8.186,37.279L47.312,54.564z"/>
	<path fill="#9E98B4" d="M31.824,23.567c4.407,10.798,9.384,30.243,9.924,32.372h3.094l-8.195-37.319
		C33.133,21.032,32.012,23.161,31.824,23.567z"/>
	<polygon fill="#9E98B4" points="50.569,55.521 50.415,55.493 47.962,69.451 49.261,68.795 53.024,55.049 	"/>
	<polygon fill="#726C91" points="56.573,56.27 52.35,69.461 53.994,68.778 58.872,55.407 	"/>
	<path fill="#A77816" d="M58.731,71.441l8.199,4.263l9.491-12.717c-1.539-0.646-8.284-3.543-11.46-6.075L58.731,71.441z"/>
	<polygon fill="#5F5E5E" points="41.808,56.483 41.808,69.664 43.872,69.664 44.307,69.322 44.895,56.483 	"/>
	<polygon fill="#9E98B4" points="58.855,69.664 58.855,69.784 64.464,56.702 62.05,56.35 55.974,69.664 	"/>
	<polygon fill="#5F5E5E" points="53.94,55.248 53.532,55.239 53.532,55.227 49.814,68.82 51.746,69.577 56.031,56.208 	"/>
	<path fill="#42633D" d="M88.679,55.704c1.88-2.162,3.86-4.968,5.856-8.692c1.001-7.309-0.182-13.609-0.656-15.683
		c-0.59,1.234-1.992,4.142-3.873,7.904C90.46,40.003,92.303,44.16,88.679,55.704z"/>
	<path fill="#9E98B4" d="M72.595,19.267c-3.74,0.131-5.045,0.578-5.351,0.715l-7.605,34.804l2.081,0.906L72.595,19.267z"/>
	<polygon fill="#3B692B" points="25.502,72.067 41.269,69.702 41.269,56.615 25.502,63.053 	"/>
	<path fill="#F4B637" d="M1.299,39.809c0.798,1.578,7.01,14.147,11.149,31.237c1.548-1.46,7.901-7.233,12.476-8.36
		c-2.459-13.767-7.157-26.232-9.819-32.601C13.791,30.593,6.798,33.497,1.299,39.809z M12.431,36.237
		c0.892,0,1.617,0.731,1.617,1.631s-0.725,1.631-1.617,1.631c-0.892,0-1.617-0.731-1.617-1.631S11.539,36.237,12.431,36.237z
		 M6.636,41.153c0-0.899,0.725-1.631,1.617-1.631c0.892,0,1.617,0.731,1.617,1.631c0,0.899-0.725,1.631-1.617,1.631
		C7.361,42.784,6.636,42.052,6.636,41.153z M8.253,45.676c0-0.899,0.725-1.631,1.617-1.631c0.892,0,1.617,0.731,1.617,1.631
		s-0.725,1.631-1.617,1.631C8.979,47.306,8.253,46.575,8.253,45.676z M9.601,51.196c0-0.898,0.725-1.631,1.617-1.631
		c0.892,0,1.617,0.733,1.617,1.631s-0.725,1.631-1.617,1.631C10.326,52.827,9.601,52.094,9.601,51.196z M11.353,56.06
		c0-0.898,0.725-1.631,1.617-1.631c0.892,0,1.617,0.733,1.617,1.631s-0.725,1.631-1.617,1.631
		C12.078,57.691,11.353,56.959,11.353,56.06z M14.856,62.583c-0.892,0-1.617-0.733-1.617-1.631s0.725-1.631,1.617-1.631
		c0.892,0,1.617,0.733,1.617,1.631S15.748,62.583,14.856,62.583z M20.921,58.778c0,0.898-0.725,1.631-1.617,1.631
		s-1.617-0.733-1.617-1.631s0.725-1.631,1.617-1.631S20.921,57.88,20.921,58.778z M19.303,53.886c0,0.898-0.725,1.631-1.617,1.631
		c-0.892,0-1.617-0.733-1.617-1.631s0.725-1.631,1.617-1.631C18.578,52.256,19.303,52.988,19.303,53.886z M17.552,48.75
		c0,0.898-0.725,1.631-1.617,1.631s-1.617-0.733-1.617-1.631c0-0.898,0.725-1.631,1.617-1.631S17.552,47.852,17.552,48.75z
		 M14.317,45.056c-0.892,0-1.617-0.731-1.617-1.631c0-0.899,0.725-1.631,1.617-1.631c0.892,0,1.617,0.731,1.617,1.631
		C15.934,44.324,15.209,45.056,14.317,45.056z"/>
	<path fill="#5F5E5E" d="M73.139,19.334L62.237,55.836l2.433,0.347c0.772-2.276,8.008-23.435,13.328-33.486
		C76.08,20.615,73.874,19.622,73.139,19.334z"/>
	<polygon fill="#5F5E5E" points="59.481,55.309 54.53,68.882 55.444,69.527 61.527,56.201 	"/>
	<path fill="#A77816" d="M14.469,73.123c0.838-0.584,4.512-2.897,10.494-3.429v-6.468c-4.538,1.179-11.06,7.192-12.267,8.333
		L14.469,73.123z"/>
	<path d="M15.343,29.996c-0.007,0.003-0.103,0.038-0.237,0.09c2.661,6.369,7.359,18.833,9.819,32.601
		c0.082-0.02,0.172-0.065,0.253-0.082l0.056,0.265h0.27v0.183l15.767-6.438v-0.676h0.479c-0.54-2.13-5.517-21.574-9.924-32.372
		c-0.02,0.043-0.039,0.086-0.04,0.089l-0.502-0.197c0.011-0.027,0.092-0.224,0.274-0.542c-0.513-1.221-1.017-2.321-1.503-3.249
		l-0.084-0.16l-0.179,0.017c-0.073,0.007-7.44,0.746-16.416,6.015l-0.215,0.126l0.107,0.226c0.007,0.013,0.65,1.369,1.63,3.693
		c0.155-0.06,0.262-0.1,0.27-0.103L15.343,29.996z M29.662,20.086c4.661,9.044,10.89,33.334,11.558,35.962l-15.78,6.444
		c-2.504-13.947-7.292-26.556-9.936-32.859c-0.813-1.935-1.412-3.247-1.644-3.749C21.86,21.239,28.505,20.232,29.662,20.086z"/>
	<path d="M12.474,71.363l0.223,0.197c1.206-1.14,7.728-7.154,12.267-8.333v-0.332c-0.012-0.07-0.027-0.138-0.039-0.208
		c-4.575,1.127-10.927,6.9-12.476,8.36C8.309,53.956,2.097,41.387,1.299,39.809c5.499-6.313,12.491-9.217,13.806-9.724
		c-0.032-0.077-0.068-0.165-0.1-0.24c-0.038-0.092-0.073-0.172-0.11-0.26c-1.419,0.55-8.558,3.542-14.123,10.007l-0.121,0.14
		l0.085,0.165c0.069,0.132,6.91,13.368,11.297,31.734l0.111,0.461l0.16-0.156l-0.187-0.165L12.474,71.363z"/>
	<path d="M15.106,30.085c0.135-0.052,0.23-0.087,0.237-0.09l-0.177-0.514c-0.008,0.003-0.115,0.042-0.27,0.103
		c0.038,0.089,0.072,0.169,0.11,0.26C15.038,29.921,15.073,30.008,15.106,30.085z"/>
	<path d="M25.233,62.87l-0.056-0.265c-0.081,0.017-0.171,0.062-0.253,0.082c0.013,0.07,0.027,0.138,0.039,0.208V62.87H25.233z"/>
	<polygon points="76.985,63.155 76.97,63.154 76.935,63.2 76.953,63.207 	"/>
	<path d="M78.128,22.83c-0.043-0.048-0.087-0.086-0.13-0.133c-5.32,10.051-12.556,31.21-13.328,33.486l0.544,0.077
		c0.894-2.633,8.004-23.373,13.249-33.291c1.428,0.42,9.93,3.057,15.167,7.629c-0.973,2.041-9.722,20.343-16.891,31.931
		c-1.314-0.549-8.462-3.604-11.558-6.127l-0.081,0.188l-0.138,0.321c3.176,2.531,9.921,5.429,11.46,6.075l0.305-0.408l0.156,0.021
		c0.012,0.002,0.164,0.019,0.435,0.014c4.238-6.877,8.999-16.016,12.385-22.769c-0.12-0.287-0.212-0.425-0.217-0.432l0.432-0.326
		c0.011,0.014,0.047,0.07,0.091,0.145c1.881-3.763,3.283-6.67,3.873-7.904c-0.103-0.451-0.173-0.705-0.178-0.724l0.518-0.149
		c0.001,0.005,0.018,0.068,0.027,0.102l0.045-0.096l-0.152-0.136c-5.586-4.977-14.969-7.72-15.671-7.92
		c0.02,0.022,0.041,0.039,0.06,0.061L78.128,22.83z"/>
	<path d="M36.646,18.621l-0.088-0.398l0.526-0.117l0.087,0.394c0.949,0.169,3.476,0.667,5.468,1.486l4.672,34.578l-1.954,1.216
		l0.09,0.409l-0.001,0.036l-0.007,0.143l1.796-1.118l0.147-0.864l0.461,0.085l-4.672-34.584c-0.026,0.03-0.054,0.055-0.079,0.085
		l-0.411-0.352c0.043-0.051,0.09-0.093,0.133-0.142c-2.54-1.039-5.81-1.559-5.951-1.581l-0.102-0.016l-0.086,0.057
		c-3.213,2.126-4.598,4.069-5.119,4.979c0.089,0.212,0.179,0.432,0.268,0.651C32.012,23.161,33.133,21.032,36.646,18.621z"/>
	<path d="M41.539,69.664h0.27V56.483h3.087l0.011-0.248l-0.065-0.295h-3.094c0.028,0.112,0.049,0.194,0.052,0.206l0.058,0.229
		l-0.589,0.24v13.087l-15.767,2.365v-9.015l-0.477,0.195l-0.006-0.037c-0.018,0.005-0.037,0.011-0.056,0.016v6.468
		c0.086-0.008,0.161-0.023,0.248-0.03l0.042,0.544c-0.102,0.008-0.19,0.027-0.291,0.037v2.452l16.601-2.488h-0.026V69.664z"/>
	<path d="M31.783,23.656c0.001-0.002,0.021-0.046,0.04-0.089c-0.09-0.22-0.179-0.439-0.268-0.651
		c-0.182,0.318-0.263,0.515-0.274,0.542L31.783,23.656z"/>
	<path d="M41.269,56.615l0.589-0.24L41.8,56.145c-0.003-0.012-0.024-0.094-0.052-0.206h-0.479V56.615z"/>
	<path d="M25.233,62.87l0.056,0.265c-0.087,0.018-0.181,0.053-0.27,0.076l0.006,0.037l0.477-0.195V62.87H25.233z"/>
	<path d="M24.963,62.894v0.332c0.018-0.005,0.037-0.011,0.056-0.016l-0.051-0.294C24.966,62.909,24.965,62.902,24.963,62.894z"/>
	<path d="M25.233,62.87h-0.27v0.024c0.001,0.008,0.003,0.015,0.004,0.022l0.051,0.294c0.089-0.022,0.183-0.057,0.27-0.076
		L25.233,62.87z"/>
	<path d="M14.469,73.123l-1.772-1.564c-0.12,0.114-0.206,0.196-0.213,0.203l-0.179,0.173l2.135,1.884l0.176-0.134
		c0.037-0.029,3.82-2.848,10.348-3.441v-0.55C18.981,70.226,15.306,72.539,14.469,73.123z"/>
	<path d="M12.697,71.559l-0.223-0.197l-0.356,0.408l0.187,0.165l0.179-0.173C12.49,71.755,12.577,71.673,12.697,71.559z"/>
	<path d="M25.212,69.664c-0.087,0.007-0.162,0.022-0.248,0.03v0.55c0.101-0.009,0.188-0.029,0.291-0.037L25.212,69.664z"/>
	<path d="M94.246,30.558l-0.042,0.089c-0.01,0.02-0.137,0.288-0.325,0.682c0.474,2.075,1.657,8.374,0.656,15.683
		c0.016-0.03,0.032-0.054,0.048-0.085l0.469,0.253C96.257,38.522,94.439,31.285,94.246,30.558z"/>
	<path d="M90.534,59.243C86.09,67.096,78.4,72.567,67.717,75.551l-0.548,0.735c11.2-2.977,19.22-8.62,23.837-16.777
		c2.297-4.06,3.487-8.327,4.043-12.306c-0.256,0.48-0.511,0.902-0.767,1.354C93.659,52.058,92.523,55.729,90.534,59.243z"/>
	<path d="M93.701,30.604c0.006,0.019,0.075,0.274,0.178,0.724c0.188-0.393,0.316-0.662,0.325-0.682l0.042-0.089
		c-0.009-0.034-0.026-0.097-0.027-0.102L93.701,30.604z"/>
	<path d="M87.807,56.682c0.287-0.305,0.579-0.641,0.872-0.978c3.624-11.544,1.781-15.701,1.327-16.471
		c-0.104,0.208-0.199,0.4-0.306,0.613C90.253,41.165,91.426,45.772,87.807,56.682z"/>
	<path d="M89.915,39.087l-0.432,0.326c0.005,0.007,0.097,0.145,0.217,0.432c0.107-0.212,0.202-0.405,0.306-0.613
		C89.962,39.157,89.926,39.102,89.915,39.087z"/>
	<ellipse fill="#3B0F10" cx="12.97" cy="56.06" rx="1.078" ry="1.087"/>
	<path d="M14.587,56.06c0-0.898-0.725-1.631-1.617-1.631c-0.892,0-1.617,0.733-1.617,1.631s0.725,1.631,1.617,1.631
		C13.861,57.691,14.587,56.959,14.587,56.06z M12.97,57.42c-0.744,0-1.348-0.608-1.348-1.359c0-0.751,0.603-1.359,1.348-1.359
		c0.744,0,1.348,0.608,1.348,1.359C14.317,56.812,13.714,57.42,12.97,57.42z"/>
	<path d="M12.97,54.702c-0.744,0-1.348,0.608-1.348,1.359c0,0.75,0.603,1.359,1.348,1.359c0.744,0,1.348-0.608,1.348-1.359
		C14.317,55.311,13.714,54.702,12.97,54.702z M12.97,57.148c-0.595,0-1.078-0.488-1.078-1.087s0.483-1.087,1.078-1.087
		s1.078,0.488,1.078,1.087S13.565,57.148,12.97,57.148z"/>
	<ellipse fill="#3B0F10" cx="17.686" cy="53.886" rx="1.078" ry="1.087"/>
	<path d="M16.069,53.886c0,0.898,0.725,1.631,1.617,1.631c0.892,0,1.617-0.733,1.617-1.631s-0.725-1.631-1.617-1.631
		C16.795,52.256,16.069,52.988,16.069,53.886z M17.686,52.528c0.744,0,1.348,0.608,1.348,1.359c0,0.75-0.603,1.359-1.348,1.359
		c-0.744,0-1.348-0.608-1.348-1.359C16.339,53.136,16.942,52.528,17.686,52.528z"/>
	<path d="M17.686,55.246c0.744,0,1.348-0.608,1.348-1.359c0-0.751-0.603-1.359-1.348-1.359c-0.744,0-1.348,0.608-1.348,1.359
		C16.339,54.637,16.942,55.246,17.686,55.246z M17.686,52.799c0.595,0,1.078,0.488,1.078,1.087c0,0.599-0.483,1.087-1.078,1.087
		c-0.595,0-1.078-0.488-1.078-1.087C16.608,53.288,17.091,52.799,17.686,52.799z"/>
	<ellipse fill="#3B0F10" cx="14.856" cy="60.952" rx="1.078" ry="1.087"/>
	<path d="M14.856,59.322c-0.892,0-1.617,0.733-1.617,1.631s0.725,1.631,1.617,1.631c0.892,0,1.617-0.733,1.617-1.631
		S15.748,59.322,14.856,59.322z M14.856,62.312c-0.744,0-1.348-0.608-1.348-1.359c0-0.751,0.603-1.359,1.348-1.359
		c0.744,0,1.348,0.608,1.348,1.359C16.204,61.703,15.601,62.312,14.856,62.312z"/>
	<path d="M14.856,59.594c-0.744,0-1.348,0.608-1.348,1.359c0,0.75,0.603,1.359,1.348,1.359c0.744,0,1.348-0.608,1.348-1.359
		C16.204,60.202,15.601,59.594,14.856,59.594z M14.856,62.039c-0.595,0-1.078-0.488-1.078-1.087c0-0.599,0.483-1.087,1.078-1.087
		s1.078,0.488,1.078,1.087C15.934,61.551,15.451,62.039,14.856,62.039z"/>
	<ellipse fill="#3B0F10" cx="19.303" cy="58.778" rx="1.078" ry="1.087"/>
	<path d="M17.686,58.778c0,0.898,0.725,1.631,1.617,1.631s1.617-0.733,1.617-1.631s-0.725-1.631-1.617-1.631
		S17.686,57.88,17.686,58.778z M20.651,58.779c0,0.75-0.603,1.359-1.348,1.359c-0.744,0-1.348-0.608-1.348-1.359
		c0-0.751,0.603-1.359,1.348-1.359C20.048,57.42,20.651,58.028,20.651,58.779z"/>
	<path d="M17.956,58.779c0,0.75,0.603,1.359,1.348,1.359c0.744,0,1.348-0.608,1.348-1.359c0-0.751-0.603-1.359-1.348-1.359
		C18.559,57.42,17.956,58.028,17.956,58.779z M19.303,57.691c0.595,0,1.078,0.488,1.078,1.087c0,0.599-0.483,1.087-1.078,1.087
		c-0.595,0-1.078-0.488-1.078-1.087C18.225,58.179,18.709,57.691,19.303,57.691z"/>
	<ellipse fill="#3B0F10" cx="9.87" cy="45.676" rx="1.078" ry="1.087"/>
	<path d="M11.487,45.676c0-0.899-0.725-1.631-1.617-1.631c-0.892,0-1.617,0.731-1.617,1.631s0.725,1.631,1.617,1.631
		C10.762,47.306,11.487,46.575,11.487,45.676z M8.523,45.676c0-0.75,0.603-1.359,1.348-1.359c0.744,0,1.348,0.608,1.348,1.359
		c0,0.751-0.603,1.359-1.348,1.359C9.126,47.035,8.523,46.427,8.523,45.676z"/>
	<path d="M11.218,45.676c0-0.75-0.603-1.359-1.348-1.359c-0.744,0-1.348,0.608-1.348,1.359c0,0.751,0.603,1.359,1.348,1.359
		C10.615,47.035,11.218,46.427,11.218,45.676z M8.792,45.676c0-0.6,0.483-1.087,1.078-1.087s1.078,0.487,1.078,1.087
		s-0.483,1.087-1.078,1.087S8.792,46.276,8.792,45.676z"/>
	<ellipse fill="#3B0F10" cx="14.317" cy="43.425" rx="1.078" ry="1.087"/>
	<path d="M14.317,41.795c-0.892,0-1.617,0.731-1.617,1.631c0,0.899,0.725,1.631,1.617,1.631c0.892,0,1.617-0.731,1.617-1.631
		C15.934,42.526,15.209,41.795,14.317,41.795z M14.317,44.784c-0.744,0-1.348-0.608-1.348-1.359c0-0.75,0.603-1.359,1.348-1.359
		c0.744,0,1.348,0.608,1.348,1.359C15.665,44.176,15.062,44.784,14.317,44.784z"/>
	<path d="M14.317,42.066c-0.744,0-1.348,0.608-1.348,1.359c0,0.751,0.603,1.359,1.348,1.359c0.744,0,1.348-0.608,1.348-1.359
		C15.665,42.675,15.062,42.066,14.317,42.066z M14.317,44.512c-0.595,0-1.078-0.487-1.078-1.087c0-0.6,0.483-1.087,1.078-1.087
		s1.078,0.487,1.078,1.087C15.395,44.025,14.912,44.512,14.317,44.512z"/>
	<ellipse fill="#3B0F10" cx="11.218" cy="51.196" rx="1.078" ry="1.087"/>
	<path d="M12.835,51.196c0-0.898-0.725-1.631-1.617-1.631c-0.892,0-1.617,0.733-1.617,1.631s0.725,1.631,1.617,1.631
		C12.11,52.827,12.835,52.094,12.835,51.196z M11.218,52.555c-0.744,0-1.348-0.608-1.348-1.359c0-0.75,0.603-1.359,1.348-1.359
		c0.744,0,1.348,0.608,1.348,1.359C12.566,51.947,11.962,52.555,11.218,52.555z"/>
	<path d="M11.218,49.837c-0.744,0-1.348,0.608-1.348,1.359c0,0.751,0.603,1.359,1.348,1.359c0.744,0,1.348-0.608,1.348-1.359
		C12.566,50.446,11.962,49.837,11.218,49.837z M11.218,52.283c-0.595,0-1.078-0.488-1.078-1.087c0-0.599,0.483-1.087,1.078-1.087
		s1.078,0.488,1.078,1.087C12.296,51.795,11.813,52.283,11.218,52.283z"/>
	<ellipse fill="#3B0F10" cx="15.934" cy="48.75" rx="1.078" ry="1.087"/>
	<path d="M14.317,48.75c0,0.898,0.725,1.631,1.617,1.631s1.617-0.733,1.617-1.631c0-0.898-0.725-1.631-1.617-1.631
		S14.317,47.852,14.317,48.75z M17.282,48.75c0,0.751-0.603,1.359-1.348,1.359c-0.744,0-1.348-0.608-1.348-1.359
		c0-0.75,0.603-1.359,1.348-1.359C16.679,47.391,17.282,48,17.282,48.75z"/>
	<path d="M14.587,48.75c0,0.751,0.603,1.359,1.348,1.359c0.744,0,1.348-0.608,1.348-1.359c0-0.75-0.603-1.359-1.348-1.359
		C15.19,47.391,14.587,48,14.587,48.75z M15.934,47.663c0.595,0,1.078,0.488,1.078,1.087c0,0.599-0.483,1.087-1.078,1.087
		c-0.595,0-1.078-0.488-1.078-1.087C14.856,48.151,15.34,47.663,15.934,47.663z"/>
	<polygon fill="#5F5E5E" points="26.015,46.664 27.2,45.906 25.085,39.657 23.159,40.825 	"/>
	<path d="M25.798,47.447l2.049-1.311l-2.467-7.291l-2.925,1.773L25.798,47.447z M27.524,46.02l-1.617,1.035l-3.099-6.335l2.426-1.47
		L27.524,46.02z"/>
	<path d="M25.907,47.055l1.617-1.035l-2.291-6.769l-2.426,1.47L25.907,47.055z M27.2,45.906l-1.185,0.758l-2.856-5.839l1.927-1.168
		L27.2,45.906z"/>
	<polygon fill="#5F5E5E" points="28.705,56.536 30.286,56.033 28.434,50.06 26.779,50.801 	"/>
	<path d="M28.364,57.216l2.596-0.826l-2.191-7.072l-2.657,1.187L28.364,57.216z M30.623,56.212l-2.089,0.665l-2.089-6.224
		l2.156-0.963L30.623,56.212z"/>
	<path d="M28.535,56.876l2.089-0.665l-2.021-6.523l-2.156,0.963L28.535,56.876z M30.286,56.033l-1.581,0.503l-1.926-5.735
		l1.655-0.741L30.286,56.033z"/>
	<ellipse fill="#3B0F10" cx="12.431" cy="37.868" rx="1.078" ry="1.087"/>
	<path d="M12.431,39.498c0.892,0,1.617-0.731,1.617-1.631s-0.725-1.631-1.617-1.631c-0.892,0-1.617,0.731-1.617,1.631
		S11.539,39.498,12.431,39.498z M12.431,36.508c0.744,0,1.348,0.608,1.348,1.359c0,0.751-0.603,1.359-1.348,1.359
		c-0.744,0-1.348-0.608-1.348-1.359C11.083,37.117,11.687,36.508,12.431,36.508z"/>
	<path d="M12.431,39.226c0.744,0,1.348-0.608,1.348-1.359c0-0.75-0.603-1.359-1.348-1.359c-0.744,0-1.348,0.608-1.348,1.359
		C11.083,38.618,11.687,39.226,12.431,39.226z M12.431,36.781c0.595,0,1.078,0.487,1.078,1.087s-0.483,1.087-1.078,1.087
		s-1.078-0.487-1.078-1.087S11.836,36.781,12.431,36.781z"/>
	<ellipse fill="#3B0F10" cx="8.253" cy="41.153" rx="1.078" ry="1.087"/>
	<path d="M9.87,41.153c0-0.899-0.725-1.631-1.617-1.631c-0.892,0-1.617,0.731-1.617,1.631c0,0.899,0.725,1.631,1.617,1.631
		C9.145,42.784,9.87,42.052,9.87,41.153z M6.906,41.154c0-0.75,0.603-1.359,1.348-1.359c0.744,0,1.348,0.608,1.348,1.359
		s-0.603,1.359-1.348,1.359C7.509,42.512,6.906,41.904,6.906,41.154z"/>
	<path d="M9.601,41.154c0-0.75-0.603-1.359-1.348-1.359c-0.744,0-1.348,0.608-1.348,1.359s0.603,1.359,1.348,1.359
		C8.998,42.512,9.601,41.904,9.601,41.154z M7.175,41.153c0-0.6,0.483-1.087,1.078-1.087s1.078,0.487,1.078,1.087
		S8.848,42.24,8.253,42.24S7.175,41.753,7.175,41.153z"/>
	<polygon fill="#5F5E5E" points="23.547,34.738 21.327,28.644 19.629,29.842 21.745,35.594 	"/>
	<path d="M24.223,35.018l-2.631-7.223l-2.614,1.841l2.466,6.701L24.223,35.018z M21.46,28.219l2.426,6.658l-2.291,1.087
		l-2.291-6.226L21.46,28.219z"/>
	<path d="M23.885,34.878l-2.426-6.658l-2.156,1.519l2.291,6.226L23.885,34.878z M21.327,28.644l2.22,6.094l-1.802,0.856
		l-2.116-5.752L21.327,28.644z"/>
	<ellipse fill="#3B0F10" cx="75.117" cy="42.678" rx="1.28" ry="1.291"/>
	<path d="M75.117,44.512c1.002,0,1.819-0.823,1.819-1.834c0-1.012-0.817-1.834-1.819-1.834c-1.002,0-1.819,0.823-1.819,1.834
		C73.298,43.689,74.114,44.512,75.117,44.512z M75.118,41.115c0.856,0,1.55,0.7,1.55,1.563s-0.694,1.563-1.55,1.563
		c-0.856,0-1.55-0.7-1.55-1.563S74.262,41.115,75.118,41.115z"/>
	<path d="M75.118,44.24c0.856,0,1.55-0.7,1.55-1.563s-0.694-1.563-1.55-1.563c-0.856,0-1.55,0.7-1.55,1.563
		S74.262,44.24,75.118,44.24z M75.117,41.387c0.705,0,1.28,0.58,1.28,1.291c0,0.711-0.575,1.291-1.28,1.291s-1.28-0.58-1.28-1.291
		C73.837,41.966,74.411,41.387,75.117,41.387z"/>
	<ellipse fill="#3B0F10" cx="80.642" cy="45.26" rx="1.28" ry="1.291"/>
	<path d="M80.642,43.425c-1.002,0-1.819,0.823-1.819,1.834s0.817,1.834,1.819,1.834c1.002,0,1.819-0.823,1.819-1.834
		S81.644,43.425,80.642,43.425z M80.641,46.822c-0.856,0-1.55-0.7-1.55-1.563s0.694-1.563,1.55-1.563c0.856,0,1.55,0.7,1.55,1.563
		S81.497,46.822,80.641,46.822z"/>
	<path d="M80.641,43.697c-0.856,0-1.55,0.7-1.55,1.563s0.694,1.563,1.55,1.563c0.856,0,1.55-0.7,1.55-1.563
		S81.497,43.697,80.641,43.697z M80.642,46.551c-0.705,0-1.28-0.58-1.28-1.291s0.575-1.291,1.28-1.291s1.28,0.58,1.28,1.291
		S81.347,46.551,80.642,46.551z"/>
	<ellipse fill="#3B0F10" cx="71.413" cy="50.801" rx="1.28" ry="1.291"/>
	<path d="M71.413,52.636c1.002,0,1.819-0.824,1.819-1.834c0-1.011-0.817-1.834-1.819-1.834c-1.002,0-1.819,0.824-1.819,1.834
		C69.594,51.812,70.411,52.636,71.413,52.636z M71.413,49.239c0.856,0,1.55,0.7,1.55,1.563s-0.694,1.563-1.55,1.563
		c-0.856,0-1.55-0.7-1.55-1.563S70.557,49.239,71.413,49.239z"/>
	<path d="M71.413,52.364c0.856,0,1.55-0.7,1.55-1.563s-0.694-1.563-1.55-1.563c-0.856,0-1.55,0.7-1.55,1.563
		S70.557,52.364,71.413,52.364z M71.413,49.51c0.705,0,1.28,0.58,1.28,1.291s-0.575,1.291-1.28,1.291c-0.705,0-1.28-0.58-1.28-1.291
		S70.708,49.51,71.413,49.51z"/>
	<ellipse fill="#3B0F10" cx="76.936" cy="53.383" rx="1.28" ry="1.291"/>
	<path d="M76.936,51.549c-1.002,0-1.819,0.824-1.819,1.834s0.817,1.834,1.819,1.834c1.002,0,1.819-0.824,1.819-1.834
		S77.938,51.549,76.936,51.549z M76.937,54.946c-0.856,0-1.55-0.7-1.55-1.563c0-0.863,0.694-1.563,1.55-1.563
		c0.856,0,1.55,0.7,1.55,1.563C78.487,54.246,77.793,54.946,76.937,54.946z"/>
	<path d="M76.937,51.821c-0.856,0-1.55,0.7-1.55,1.563c0,0.863,0.694,1.563,1.55,1.563c0.856,0,1.55-0.7,1.55-1.563
		C78.487,52.52,77.793,51.821,76.937,51.821z M76.936,54.674c-0.705,0-1.28-0.58-1.28-1.291s0.575-1.291,1.28-1.291
		c0.705,0,1.28,0.58,1.28,1.291S77.641,54.674,76.936,54.674z"/>
	<ellipse fill="#3B0F10" cx="80.956" cy="29.782" rx="1.28" ry="1.291"/>
	<path d="M80.956,31.617c1.002,0,1.819-0.823,1.819-1.834c0-1.012-0.817-1.834-1.819-1.834s-1.819,0.823-1.819,1.834
		C79.136,30.794,79.953,31.617,80.956,31.617z M80.956,28.219c0.856,0,1.55,0.7,1.55,1.563c0,0.863-0.694,1.563-1.55,1.563
		c-0.856,0-1.55-0.7-1.55-1.563C79.406,28.919,80.1,28.219,80.956,28.219z"/>
	<path d="M80.956,31.345c0.856,0,1.55-0.7,1.55-1.563c0-0.863-0.694-1.563-1.55-1.563c-0.856,0-1.55,0.7-1.55,1.563
		C79.406,30.645,80.1,31.345,80.956,31.345z M80.956,28.491c0.705,0,1.28,0.58,1.28,1.291c0,0.711-0.575,1.291-1.28,1.291
		s-1.28-0.58-1.28-1.291C79.675,29.071,80.25,28.491,80.956,28.491z"/>
	<ellipse fill="#3B0F10" cx="86.748" cy="32.364" rx="1.28" ry="1.291"/>
	<path d="M86.748,34.199c1.002,0,1.819-0.823,1.819-1.834c0-1.012-0.817-1.834-1.819-1.834c-1.002,0-1.819,0.823-1.819,1.834
		C84.929,33.376,85.746,34.199,86.748,34.199z M86.749,30.801c0.856,0,1.55,0.7,1.55,1.563c0,0.863-0.694,1.563-1.55,1.563
		c-0.856,0-1.55-0.7-1.55-1.563C85.199,31.501,85.893,30.801,86.749,30.801z"/>
	<path d="M86.749,33.927c0.856,0,1.55-0.7,1.55-1.563c0-0.863-0.694-1.563-1.55-1.563c-0.856,0-1.55,0.7-1.55,1.563
		C85.199,33.227,85.893,33.927,86.749,33.927z M86.748,31.073c0.705,0,1.28,0.58,1.28,1.291c0,0.711-0.575,1.291-1.28,1.291
		c-0.705,0-1.28-0.58-1.28-1.291C85.468,31.653,86.043,31.073,86.748,31.073z"/>
	<ellipse fill="#3B0F10" cx="78.216" cy="36.193" rx="1.28" ry="1.291"/>
	<path d="M78.216,38.028c1.002,0,1.819-0.823,1.819-1.834s-0.817-1.834-1.819-1.834c-1.002,0-1.819,0.823-1.819,1.834
		S77.214,38.028,78.216,38.028z M78.217,34.631c0.856,0,1.55,0.7,1.55,1.563c0,0.863-0.694,1.563-1.55,1.563
		c-0.856,0-1.55-0.7-1.55-1.563C76.667,35.331,77.361,34.631,78.217,34.631z"/>
	<path d="M78.217,37.756c0.856,0,1.55-0.7,1.55-1.563c0-0.863-0.694-1.563-1.55-1.563c-0.856,0-1.55,0.7-1.55,1.563
		C76.667,37.057,77.361,37.756,78.217,37.756z M78.216,34.903c0.705,0,1.28,0.58,1.28,1.291s-0.575,1.291-1.28,1.291
		c-0.705,0-1.28-0.58-1.28-1.291S77.511,34.903,78.216,34.903z"/>
	<ellipse fill="#3B0F10" cx="83.741" cy="38.775" rx="1.28" ry="1.291"/>
	<path d="M81.922,38.775c0,1.012,0.817,1.834,1.819,1.834c1.002,0,1.819-0.823,1.819-1.834c0-1.012-0.817-1.834-1.819-1.834
		C82.739,36.941,81.922,37.764,81.922,38.775z M83.741,37.213c0.856,0,1.55,0.7,1.55,1.563s-0.694,1.563-1.55,1.563
		c-0.856,0-1.55-0.7-1.55-1.563S82.885,37.213,83.741,37.213z"/>
	<path d="M83.741,40.338c0.856,0,1.55-0.7,1.55-1.563s-0.694-1.563-1.55-1.563c-0.856,0-1.55,0.7-1.55,1.563
		S82.885,40.338,83.741,40.338z M83.741,37.484c0.705,0,1.28,0.58,1.28,1.291c0,0.711-0.575,1.291-1.28,1.291
		c-0.705,0-1.28-0.58-1.28-1.291C82.461,38.064,83.036,37.484,83.741,37.484z"/>
	<path d="M67.307,19.693l-0.036,0.16l-0.028,0.128c0.306-0.136,1.612-0.584,5.351-0.715l0.109-0.366l0.518,0.157l-0.082,0.276
		c0.734,0.288,2.941,1.281,4.858,3.363c0.031-0.058,0.062-0.12,0.092-0.177l0.103-0.191l0.206,0.057
		c0.003,0.001,0.044,0.013,0.068,0.02c-2.434-2.691-5.302-3.645-5.423-3.685l-0.044-0.014l-0.044,0.001
		c-4.028,0.11-5.464,0.567-5.915,0.769c0.046,0.038,0.094,0.071,0.139,0.11L67.307,19.693z"/>
	<path d="M78.193,22.329L78.09,22.52c-0.03,0.057-0.062,0.12-0.092,0.177c0.043,0.047,0.088,0.085,0.13,0.133l0.4-0.363
		c-0.02-0.022-0.04-0.039-0.06-0.061c-0.024-0.007-0.065-0.019-0.068-0.02L78.193,22.329z"/>
	<polygon points="53.94,55.248 56.031,56.208 56.105,55.978 56.145,55.663 54.085,54.717 54.071,55.252 	"/>
	<polygon points="53.431,54.419 50.82,54.92 50.837,55.23 50.457,55.251 50.415,55.493 50.569,55.521 53.024,55.049 53.138,54.629 
		53.545,54.743 53.552,54.473 53.509,54.453 	"/>
	<polygon points="49.885,55.396 49.932,55.13 50.294,55.194 50.279,54.916 47.843,54.47 47.893,54.84 47.236,55.249 44.93,68.833 
		45.132,68.675 45.48,68.811 47.823,55.018 	"/>
	<path d="M55.019,18.02l-0.004,0.152l-0.002,0.086c0.149-0.179,1.221-1.184,6.026-1.559l0.042-0.335l0.535,0.068l-0.045,0.355
		c0.834,0.365,3.143,1.452,5.138,3.111l-7.614,34.844l-2.41,0.908l-0.056,0.445l-0.056,0.176l2.299-0.863l0.301-0.824l0.465,0.203
		l7.605-34.804c-0.054,0.024-0.087,0.041-0.088,0.042l-0.299-0.453c0.019-0.013,0.087-0.049,0.185-0.093
		c-2.534-2.105-5.468-3.283-5.594-3.332l-0.057-0.022l-0.061,0.004c-4.719,0.324-6.187,1.245-6.632,1.685
		c0.099,0.063,0.178,0.113,0.196,0.125L55.019,18.02z"/>
	<polygon points="47.843,54.47 47.383,54.385 47.236,55.249 47.893,54.84 	"/>
	<path d="M67.155,20.023c0.001-0.001,0.034-0.018,0.088-0.042l0.028-0.128l0.036-0.16l-0.126-0.106
		c-0.046-0.039-0.093-0.072-0.139-0.11c-0.098,0.044-0.165,0.08-0.185,0.093L67.155,20.023z"/>
	<path d="M88.283,56.963l-0.51-0.174c0.012-0.037,0.021-0.07,0.034-0.107c-5.036,5.34-9.181,5.909-10.491,5.932
		c-0.08,0.13-0.163,0.271-0.243,0.4l-0.087,0.141c1.273,0.089,9.065-0.063,17.296-14.599c0.092-0.518,0.184-1.035,0.253-1.544
		c-1.996,3.724-3.976,6.53-5.856,8.692C88.548,56.123,88.429,56.524,88.283,56.963z"/>
	<path d="M65.18,56.403l0.06-0.139l-0.026-0.004c-0.012,0.036-0.036,0.104-0.045,0.133C65.171,56.397,65.176,56.4,65.18,56.403z"/>
	<path d="M66.941,75.787c0.268-0.071,0.512-0.163,0.777-0.236L76.935,63.2l-0.191-0.078c-0.033-0.014-0.158-0.066-0.324-0.135
		L66.93,75.705l-8.199-4.263l6.23-14.528c-0.093-0.074-0.195-0.149-0.281-0.222l-0.141-0.119l0.059-0.176
		c0.004-0.012,0.032-0.094,0.072-0.213l-2.433-0.347l-0.09,0.303L62.05,56.35l2.415,0.351l-5.609,13.082v0.424h-0.182l-0.536,1.251
		l-0.101,0.234l8.848,4.601l0.202,0.104l0.083-0.111c-0.032,0.009-0.061,0.02-0.094,0.029L66.941,75.787z"/>
	<path d="M95.059,47.184l-0.007-0.004c-0.001,0.007-0.002,0.014-0.004,0.022C95.052,47.196,95.056,47.191,95.059,47.184z"/>
	<polygon points="61.527,56.201 61.643,55.946 61.719,55.692 59.638,54.785 59.558,55.15 58.872,55.407 53.994,68.778 54.24,68.677 
		54.53,68.882 59.481,55.309 	"/>
	<path d="M65.18,56.403c-0.004-0.003-0.008-0.006-0.012-0.009c0.01-0.029,0.033-0.097,0.045-0.133l-0.544-0.077
		c-0.04,0.119-0.068,0.201-0.072,0.213l-0.059,0.176l0.141,0.119c0.086,0.073,0.189,0.148,0.281,0.222l0.138-0.321L65.18,56.403z"/>
	<path d="M76.985,63.155l0.087-0.141c0.08-0.129,0.163-0.27,0.243-0.4c-0.27,0.005-0.422-0.012-0.435-0.014l-0.156-0.021
		l-0.305,0.408c0.166,0.069,0.29,0.121,0.324,0.135l0.191,0.078l0.034-0.046C76.974,63.154,76.981,63.154,76.985,63.155z"/>
	<path d="M94.535,47.012c-0.07,0.509-0.161,1.027-0.253,1.544c0.256-0.452,0.511-0.874,0.767-1.354
		c0.001-0.007,0.002-0.014,0.004-0.022l-0.469-0.253C94.567,46.958,94.551,46.982,94.535,47.012z"/>
	<path d="M66.941,75.787l0.135,0.527c0.032-0.008,0.061-0.02,0.094-0.029l0.548-0.735C67.452,75.625,67.209,75.716,66.941,75.787z"
		/>
	<path d="M87.774,56.789l0.51,0.174c0.146-0.439,0.264-0.84,0.396-1.259c-0.293,0.337-0.584,0.673-0.872,0.978
		C87.795,56.719,87.786,56.751,87.774,56.789z"/>
	<polygon points="59.638,54.785 59.173,54.583 58.872,55.407 59.558,55.15 	"/>
	<polygon points="45.254,56.483 44.895,56.483 44.307,69.322 44.867,68.882 45.44,56.367 	"/>
	<path d="M45.358,55.779L37.172,18.5c-0.12-0.021-0.224-0.039-0.289-0.05c-0.087,0.058-0.153,0.113-0.237,0.171l8.195,37.319H45.1
		L45.358,55.779z"/>
	<path d="M37.172,18.5l-0.087-0.394l-0.526,0.117l0.088,0.398c0.084-0.058,0.15-0.113,0.237-0.171
		C36.948,18.461,37.052,18.478,37.172,18.5z"/>
	<polygon points="45.44,56.367 45.447,56.224 45.448,56.188 45.358,55.779 45.1,55.939 44.842,55.939 44.907,56.235 44.895,56.483 
		45.254,56.483 	"/>
	<path d="M50.566,54.969l0.254-0.049l-2.123-38.926c-0.03-0.001-0.064-0.009-0.094-0.009c-0.043,0-0.086,0.001-0.129,0.002
		c-0.054,0.024-0.166,0.076-0.31,0.146l2.116,38.784L50.566,54.969z"/>
	<polygon points="50.457,55.251 50.837,55.23 50.82,54.92 50.566,54.969 50.279,54.916 50.294,55.194 50.462,55.224 	"/>
	<polygon points="56.352,56.353 56.251,56.309 56.031,56.208 51.746,69.577 51.913,69.643 52.35,69.461 56.573,56.27 	"/>
	<path d="M56.373,55.767l0.313-0.118l4.886-38.863c-0.122-0.053-0.214-0.092-0.267-0.114c-0.099,0.007-0.17,0.018-0.265,0.026
		l-4.894,38.965L56.373,55.767z"/>
	<path d="M61.571,16.787l0.045-0.355l-0.535-0.068l-0.042,0.335c0.096-0.007,0.167-0.019,0.265-0.026
		C61.357,16.694,61.449,16.733,61.571,16.787z"/>
	<polygon points="56.145,55.663 56.105,55.978 56.031,56.208 56.251,56.309 56.352,56.353 56.573,56.27 56.63,56.094 56.685,55.65 
		56.373,55.767 	"/>
	<polygon points="61.527,56.201 55.444,69.527 55.638,69.664 55.974,69.664 62.05,56.35 61.78,56.311 	"/>
	<path d="M72.923,19.252c-0.121,0.003-0.212,0.01-0.328,0.015L61.719,55.692l0.242,0.105l0.276,0.039l10.903-36.503
		C73.043,19.296,72.964,19.267,72.923,19.252z"/>
	<path d="M73.139,19.334l0.082-0.276l-0.518-0.157l-0.109,0.366c0.116-0.004,0.207-0.011,0.328-0.015
		C72.964,19.267,73.043,19.296,73.139,19.334z"/>
	<polygon points="61.719,55.692 61.643,55.946 61.527,56.201 61.78,56.311 62.05,56.35 62.146,56.139 62.237,55.836 61.961,55.797 	
		"/>
	<polygon points="58.855,69.664 55.974,69.664 55.798,70.05 55.309,69.821 55.444,69.527 54.53,68.882 54.459,69.078 53.953,68.891 
		53.994,68.778 52.35,69.461 52.172,70.019 51.658,69.853 51.746,69.577 49.814,68.82 49.749,69.057 49.229,68.912 49.261,68.795 
		47.962,69.451 47.868,69.982 47.337,69.889 47.395,69.562 45.48,68.811 45.442,69.031 44.912,68.938 44.93,68.833 44.867,68.882 
		44.84,69.473 44.301,69.447 44.307,69.322 43.872,69.664 41.808,69.664 41.808,70.169 41.579,70.205 41.564,70.208 44.057,70.208 
		45.222,69.295 47.616,70.233 49.503,69.282 51.818,70.188 51.917,70.229 54.172,69.292 55.469,70.208 58.673,70.208 58.855,69.784 
			"/>
	<polygon points="41.808,70.169 41.808,69.664 41.539,69.664 41.539,70.208 41.564,70.208 41.579,70.205 	"/>
	<polygon points="44.93,68.833 44.912,68.938 45.442,69.031 45.48,68.811 45.132,68.675 	"/>
	<polygon points="58.855,69.784 58.673,70.208 58.855,70.208 	"/>
	<polygon points="53.994,68.778 53.953,68.891 54.459,69.078 54.53,68.882 54.24,68.677 	"/>
	<polygon points="44.301,69.447 44.84,69.473 44.867,68.882 44.307,69.322 	"/>
	<polygon points="51.746,69.577 51.658,69.853 52.172,70.019 52.35,69.461 51.913,69.643 	"/>
	<polygon points="55.444,69.527 55.309,69.821 55.798,70.05 55.974,69.664 55.638,69.664 	"/>
	<polygon points="49.885,55.396 47.395,69.562 47.589,69.638 47.962,69.451 50.415,55.493 	"/>
	<polygon points="50.298,55.26 50.294,55.194 49.932,55.13 49.885,55.396 50.415,55.493 50.457,55.251 	"/>
	<polygon points="50.457,55.251 50.462,55.224 50.294,55.194 50.298,55.26 	"/>
	<polygon points="47.395,69.562 47.337,69.889 47.868,69.982 47.962,69.451 47.589,69.638 	"/>
	<polygon points="53.537,55.063 53.364,54.984 53.024,55.049 49.261,68.795 49.476,68.687 49.814,68.82 53.532,55.227 	"/>
	<polygon points="53.138,54.629 53.024,55.049 53.364,54.984 53.537,55.063 53.545,54.743 	"/>
	<polygon points="49.261,68.795 49.229,68.912 49.749,69.057 49.814,68.82 49.476,68.687 	"/>
	<path d="M43.133,19.605l0.021,0.153l0.017,0.128c1.782-2.071,4.123-3.331,4.993-3.753l-0.022-0.399l0.539-0.03l0.016,0.291
		c2.077,0.053,5.123,1.903,5.774,2.317l-0.92,36.162l0.533,0.245l0.928-36.46c-0.014,0.017-0.031,0.037-0.031,0.038l-0.476-0.253
		c0.015-0.031,0.079-0.12,0.192-0.231c-0.808-0.509-4.085-2.474-6.3-2.366l-0.088,0.021c-0.132,0.055-3.2,1.373-5.494,4.009
		c0.058,0.024,0.12,0.044,0.177,0.068L43.133,19.605z"/>
	<polygon points="53.532,55.227 53.532,55.239 53.94,55.248 53.573,55.08 	"/>
	<path d="M43.092,19.971c0.025-0.03,0.054-0.055,0.079-0.085l-0.017-0.128l-0.021-0.153l-0.142-0.061
		c-0.057-0.024-0.119-0.044-0.177-0.068c-0.043,0.05-0.09,0.092-0.133,0.142L43.092,19.971z"/>
	<polygon points="53.656,54.774 53.573,55.08 53.94,55.248 54.071,55.252 54.085,54.717 53.552,54.473 53.545,54.743 	"/>
	<path d="M54.981,18.296c0.001-0.001,0.018-0.021,0.031-0.038l0.002-0.086l0.004-0.152l-0.126-0.083
		c-0.018-0.012-0.096-0.063-0.196-0.125c-0.113,0.111-0.177,0.2-0.192,0.231L54.981,18.296z"/>
	<path d="M48.603,15.985c0.03,0,0.064,0.009,0.094,0.009l-0.016-0.291l-0.539,0.03l0.022,0.399c0.143-0.07,0.256-0.122,0.31-0.146
		C48.517,15.986,48.56,15.985,48.603,15.985z"/>
	<polygon points="53.537,55.063 53.532,55.227 53.573,55.08 	"/>
	<polygon points="53.656,54.774 53.545,54.743 53.537,55.063 53.573,55.08 	"/>
</g>
</svg>
